<svg xmlns="http://www.w3.org/2000/svg" viewBox="0 0 32 32">
  <rect width="32" height="32" rx="7" fill="#1d3557"/>
  <g stroke="#f6b40e" stroke-width="1.4" stroke-linecap="round"><line x1="24.20" y1="16.00" x2="29.20" y2="16.00"/><line x1="23.58" y1="19.14" x2="26.16" y2="20.21"/><line x1="21.80" y1="21.80" x2="25.33" y2="25.33"/><line x1="19.14" y1="23.58" x2="20.21" y2="26.16"/><line x1="16.00" y1="24.20" x2="16.00" y2="29.20"/><line x1="12.86" y1="23.58" x2="11.79" y2="26.16"/><line x1="10.20" y1="21.80" x2="6.67" y2="25.33"/><line x1="8.42" y1="19.14" x2="5.84" y2="20.21"/><line x1="7.80" y1="16.00" x2="2.80" y2="16.00"/><line x1="8.42" y1="12.86" x2="5.84" y2="11.79"/><line x1="10.20" y1="10.20" x2="6.67" y2="6.67"/><line x1="12.86" y1="8.42" x2="11.79" y2="5.84"/><line x1="16.00" y1="7.80" x2="16.00" y2="2.80"/><line x1="19.14" y1="8.42" x2="20.21" y2="5.84"/><line x1="21.80" y1="10.20" x2="25.33" y2="6.67"/><line x1="23.58" y1="12.86" x2="26.16" y2="11.79"/></g>
  <circle cx="16" cy="16" r="6.4" fill="#f6b40e"/>
</svg>
